# xmcd CD database file
# Copyright (C) 1995-1998 Ti Kan
#
# Track frame offsets:
#	150
#	14425
#	32272
#	42375
#	57020
#	73912
#	83370
#	99892
#	115404
#	131747
#	148697
#	159792
#	171015
#
# Disc length: 2399 seconds
#
# Revision: 1
# Processed by: cddbd v1.4PL0 Copyright (c) Steve Scherf et al.
# Submitted via: CDex 1.30Release
#
DISCID=9e095d0d
DTITLE=Hadacol - All In Your Head
DYEAR=2001
DGENRE=Country
TTITLE0=Down Again
TTITLE1=Watch It Burn
TTITLE2=All In Your Head
TTITLE3=Another Day
TTITLE4=Already Broken
TTITLE5=Little Sadie
TTITLE6=Dump Truck
TTITLE7=Gerald Ford
TTITLE8=Someday
TTITLE9=Libby's Tune
TTITLE10=What Am I Doing Wrong
TTITLE11=Airplane Song
TTITLE12=Be With You
EXTD=YEAR: 2001 ID3G:   2
EXTT0=
EXTT1=
EXTT2=
EXTT3=
EXTT4=
EXTT5=
EXTT6=
EXTT7=
EXTT8=
EXTT9=
EXTT10=
EXTT11=
EXTT12=
PLAYORDER=
